<?xml version="1.0" encoding="iso-8859-1"?>
<!-- Uploaded to: SVG Repo, www.svgrepo.com, Generator: SVG Repo Mixer Tools -->
<svg fill="#000000" height="800px" width="800px" version="1.1" id="Capa_1" xmlns="http://www.w3.org/2000/svg" xmlns:xlink="http://www.w3.org/1999/xlink" 
	 viewBox="0 0 612 612" xml:space="preserve">
<g>
	<g>
		<path d="M423.281,447.244H188.723c-3.982,0-7.711,1.659-10.234,4.552c-2.523,2.894-3.658,6.816-3.117,10.76l23.13,135.901
			c1.104,7.604,7.955,13.544,15.646,13.544h183.706c7.69,0,14.541-5.94,15.646-13.544l23.101-135.708l0.029-0.192
			c0.542-3.943-0.593-7.866-3.117-10.76C430.992,448.903,427.262,447.244,423.281,447.244z"/>
		<path d="M488.182,115.052c-10.543-27.27-41.351-44.211-80.4-44.211c-8.944,0-18.148,0.908-27.362,2.669
			c-3.857-14.436-9.741-27.716-17.476-39.048C347.773,12.239,327.371,0,305.495,0s-42.279,12.239-57.449,34.463
			c-7.606,11.142-13.426,24.167-17.285,38.323c-10-2.148-19.997-3.259-29.731-3.259c-36.459,0-64.921,15.137-76.136,40.493
			c-8.851,20.006-5.909,43.615,8.276,66.48c13.732,22.133,36.515,41.055,64.152,53.279c19.992,8.843,41.155,13.518,61.197,13.518
			c12.912,0,24.813-1.906,35.309-5.486v39.773c-9.165-5.472-28.174-15.27-54.5-20.823c-7.983-1.684-14.891-2.537-20.539-2.537
			c-23.662,0-24.345,14.938-24.637,21.316c-0.041,0.909-0.089,1.939-0.181,2.379c-0.128,0.612-0.526,1.656-0.909,2.664
			c-1.519,3.993-4.063,10.678-0.296,17.578c4.205,7.703,15.074,13.169,34.203,17.205c13.041,2.75,26.282,4.144,39.356,4.144
			c0.001,0,0.001,0,0.001,0c2.529,0,15.399-0.127,27.504-2.487v26.825H172.964c-8.03,0-14.562,6.533-14.562,14.563v53.889
			c0,8.03,6.531,14.562,14.562,14.562h266.081c8.03,0,14.563-6.531,14.563-14.562v-53.89c0-8.03-6.533-14.563-14.563-14.563H318.18
			v-26.825c12.107,2.361,24.979,2.486,27.505,2.486c13.073,0,26.315-1.395,39.356-4.144c19.129-4.035,29.998-9.502,34.203-17.205
			c3.767-6.9,1.225-13.584-0.295-17.577c-0.383-1.008-0.782-2.053-0.909-2.665c-0.092-0.441-0.14-1.471-0.181-2.38
			c-0.293-6.378-0.979-21.315-24.637-21.315c-5.648,0-12.556,0.853-20.539,2.537c-26.328,5.554-45.337,15.352-54.502,20.824v-41.217
			c10.895,3.652,23.208,5.614,36.478,5.614c18.127,0,37.316-3.716,55.494-10.744c28.186-10.897,51.843-28.715,66.611-50.171
			C492.014,158.899,496.072,135.456,488.182,115.052z M403.08,175.495c-8.509,12.362-22.094,22.611-38.254,28.859
			c-10.405,4.024-21.402,6.15-31.802,6.15c-9.827,0-18.768-1.87-26.271-5.287c-7.555,3.89-16.792,6.017-27.128,6.017
			c-11.507,0-23.641-2.676-35.087-7.739c-33.488-14.811-52.156-46.255-41.613-70.092c6.676-15.092,23.411-24.104,44.766-24.104
			c4.809,0,9.727,0.494,14.659,1.409c7.279-23.528,23.975-40.028,43.368-40.028c19.518,0,36.308,16.707,43.513,40.476
			c4.481-0.73,8.946-1.126,13.305-1.126c22.835,0,40.914,10.073,47.185,26.29C414.436,148.511,412.078,162.425,403.08,175.495z"/>
	</g>
</g>
</svg>